<svg width="282" height="282" viewBox="0 0 282 282" fill="none" xmlns="http://www.w3.org/2000/svg">
<rect width="282" height="282" rx="73" fill="#EEEEEE"/>
<path d="M140.5 181.969C131.764 181.969 124.056 179.367 117.375 174.164C110.694 168.961 105.877 162.377 102.922 154.411C102.023 152.356 102.151 150.365 103.307 148.437C104.464 146.51 106.088 145.29 108.181 144.776C110.242 144.262 112.161 144.391 113.939 145.161C115.716 145.932 117.118 147.217 118.146 149.016C120.201 153.898 123.124 157.912 126.914 161.06C130.704 164.207 135.244 165.781 140.535 165.781C147.331 165.781 153.071 163.435 157.755 158.744C162.439 154.052 164.781 148.303 164.781 141.496C164.781 134.69 162.436 128.942 157.745 124.253C153.054 119.563 147.305 117.219 140.5 117.219C138.906 117.219 137.254 117.476 135.545 117.99C133.838 118.503 132.085 119.017 130.286 119.531H129.901C131.494 120.045 132.695 121.092 133.505 122.672C134.314 124.253 134.719 125.903 134.719 127.625C134.719 129.8 133.914 131.693 132.304 133.304C130.693 134.914 128.8 135.719 126.625 135.719H110.438C107.624 135.719 105.186 134.688 103.124 132.626C101.062 130.564 100.031 128.126 100.031 125.312V109.125C100.031 106.95 100.836 105.057 102.446 103.446C104.057 101.836 105.95 101.031 108.125 101.031C110.155 101.031 111.883 101.821 113.309 103.402C114.735 104.982 115.705 106.825 116.219 108.932V109.51C119.688 106.684 123.431 104.564 127.448 103.151C131.465 101.738 135.816 101.031 140.5 101.031C151.764 101.031 161.325 104.964 169.183 112.831C177.04 120.696 180.969 130.267 180.969 141.544C180.969 152.82 177.04 162.377 169.183 170.214C161.325 178.05 151.764 181.969 140.5 181.969ZM91.5521 215.115C84.6018 215.115 78.7531 212.741 74.006 207.994C69.259 203.247 66.8854 197.398 66.8854 190.448V172.526C66.8854 169.019 68.0603 166.086 70.4101 163.729C72.7598 161.371 75.6505 160.193 79.0819 160.193C82.5134 160.193 85.4497 161.371 87.8906 163.729C90.3316 166.086 91.5521 169.019 91.5521 172.526V190.448H109.474C112.981 190.448 115.914 191.668 118.271 194.107C120.629 196.547 121.807 199.425 121.807 202.741C121.807 206.237 120.629 209.173 118.271 211.549C115.914 213.926 112.981 215.115 109.474 215.115H91.5521ZM189.448 215.115H171.526C168.019 215.115 165.086 213.94 162.729 211.59C160.371 209.24 159.193 206.35 159.193 202.918C159.193 199.487 160.371 196.55 162.729 194.109C165.086 191.668 168.019 190.448 171.526 190.448H189.448V172.526C189.448 169.019 190.668 166.086 193.107 163.729C195.547 161.371 198.425 160.193 201.741 160.193C205.237 160.193 208.173 161.371 210.55 163.729C212.926 166.086 214.115 169.019 214.115 172.526V190.448C214.115 197.398 211.741 203.247 206.994 207.994C202.247 212.741 196.398 215.115 189.448 215.115ZM66.8854 110.474V92.5521C66.8854 85.6017 69.259 79.753 74.006 75.006C78.7531 70.2589 84.6018 67.8854 91.5521 67.8854H109.474C112.981 67.8854 115.914 69.0603 118.271 71.41C120.629 73.7598 121.807 76.6504 121.807 80.0819C121.807 83.5134 120.629 86.4496 118.271 88.8906C115.914 91.3316 112.981 92.5521 109.474 92.5521H91.5521V110.474C91.5521 113.981 90.3323 116.914 87.8926 119.271C85.4529 121.629 82.5751 122.807 79.2592 122.807C75.7635 122.807 72.8273 121.629 70.4505 119.271C68.0738 116.914 66.8854 113.981 66.8854 110.474ZM189.448 110.474V92.5521H171.526C168.019 92.5521 165.086 91.3322 162.729 88.8925C160.371 86.4529 159.193 83.5751 159.193 80.2592C159.193 76.7635 160.371 73.8272 162.729 71.4505C165.086 69.0738 168.019 67.8854 171.526 67.8854H189.448C196.398 67.8854 202.247 70.2589 206.994 75.006C211.741 79.753 214.115 85.6017 214.115 92.5521V110.474C214.115 113.981 212.94 116.914 210.59 119.271C208.24 121.629 205.35 122.807 201.918 122.807C198.487 122.807 195.55 121.629 193.109 119.271C190.668 116.914 189.448 113.981 189.448 110.474Z" fill="url(#paint0_linear_18_5)"/>
<defs>
<linearGradient id="paint0_linear_18_5" x1="140.5" y1="67.8854" x2="140.5" y2="215.115" gradientUnits="userSpaceOnUse">
<stop stop-color="#0A0A0A"/>
<stop offset="1" stop-color="#707070"/>
</linearGradient>
</defs>
</svg>
